<svg width="500" height="500" viewBox="0 0 500 500" fill="none" xmlns="http://www.w3.org/2000/svg">
<rect width="500" height="500" rx="70" fill="#274035"/>
<path d="M267.35 90L376.7 371.7C380.9 382.5 385.55 390 390.65 394.2C396.05 398.1 400.85 400.2 405.05 400.5V409.5C396.05 408.9 385.4 408.6 373.1 408.6C361.1 408.3 348.95 408.15 336.65 408.15C322.85 408.15 309.8 408.3 297.5 408.6C285.2 408.6 275.45 408.9 268.25 409.5V400.5C283.55 399.9 293.15 397.35 297.05 392.85C301.25 388.05 300.35 378 294.35 362.7L217.85 153.45L225.95 141.75L157.55 319.95C150.95 336.45 146.9 349.95 145.4 360.45C144.2 370.95 144.95 379.05 147.65 384.75C150.65 390.45 155.3 394.5 161.6 396.9C168.2 399 176 400.2 185 400.5V409.5C175.1 408.9 165.65 408.6 156.65 408.6C147.65 408.3 138.5 408.15 129.2 408.15C122.6 408.15 116.3 408.3 110.3 408.6C104.6 408.6 99.5 408.9 95 409.5V400.5C101.3 399.3 107.75 395.25 114.35 388.35C120.95 381.45 127.4 369.75 133.7 353.25L236.3 90C241.1 90.3 246.2 90.45 251.6 90.45C257.3 90.45 262.55 90.3 267.35 90ZM298.85 279.9V288.9H164.75L169.25 279.9H298.85Z" fill="white"/>
</svg>
